<?xml version="1.0" encoding="utf-8"?>
<!-- Generator: Adobe Illustrator 25.2.0, SVG Export Plug-In . SVG Version: 6.00 Build 0)  -->
<svg version="1.1" id="Layer_1" xmlns="http://www.w3.org/2000/svg" xmlns:xlink="http://www.w3.org/1999/xlink" x="0px" y="0px"
	 viewBox="0 0 1080 1080" style="enable-background:new 0 0 1080 1080;" xml:space="preserve">
<style type="text/css">
	.st0{fill:#FFAF38;}
</style>
<g transform="translate(0.000000,1080.000000) scale(0.100000,-0.100000)">
	<path d="M0,5400V0h5400h5400v5400v5400H5400H0V5400z M4994,8461c592-119,1063-515,1280-1078c79-204,111-384,110-623
		c0-174-6-225-40-389l-7-34l34,7c164,34,215,40,389,40c193,1,259-7,435-51c566-141,1028-570,1209-1126c65-198,81-304,80-547
		c0-194-3-227-27-341c-59-281-181-543-350-754c-47-58-868-885-879-885c-5,0-8,6-8,13c0,8-14,42-32,77c-22,45-64,97-141,177l-110,114
		l399,402c416,419,461,471,543,635c99,197,136,374,128,607c-10,273-86,490-248,704c-352,468-995,624-1525,372
		c-132-63-232-132-343-235c-107-100-150-120-245-114c-77,5-132,37-180,106c-24,34-31,55-34,108c-6,96,14,138,121,252
		c179,191,290,406,332,646c19,114,19,328,0,442c-89,509-493,912-1010,1006c-38,7-135,13-215,12c-218,0-377-36-564-130
		c-172-87-221-128-638-543l-397-394l-114,110c-80,77-132,119-177,141c-35,18-69,32-77,32c-7,0-13,3-13,8c0,11,827,832,885,879
		c245,196,557,327,885,373C4566,8496,4871,8485,4994,8461z M2621,6994c50-15,69-31,240-200l185-185l70,41c38,22,103,53,144,69
		c465,180,963,69,1305-290c212-222,325-504,325-811c0-200-38-358-130-543l-60-120l128-128l129-129l94,51c234,124,497,168,759,126
		c477-78,865-449,970-930c58-265,6-596-130-829l-41-70l185-185c169-171,185-190,200-240c20-68,20-75,0-142c-29-97-126-169-229-169
		c-90,0-110,13-307,209l-188,184l-97-51c-237-123-492-167-741-127c-541,88-946,518-1003,1067c-24,233,41,525,159,713l31,50l-130,131
		l-130,130l-127-63c-249-123-501-159-760-107c-427,87-776,399-906,812c-96,306-66,623,86,915l51,97l-184,188
		c-196,197-209,217-209,307c0,101,65,193,160,225C2538,7014,2552,7014,2621,6994z"/>
	<path d="M4340,5320c12,0,50,129,61,208c40,284-120,585-381,717c-128,65-332,91-465,61c-214-49-388-185-486-378s-95-444,6-638
		c76-142,176-240,321-311c168-82,377-92,551-27l54,20"/>
	<path d="M4972,4001l-20-54c-65-174-55-383,27-551c123-250,358-398,636-398c310,0,568,187,671,487c25,71,28,95,29,210
		c0,139-18,222-70,325c-87,172-266,316-451,364c-75,20-212,27-282,16c-65-10-192-50-192-60"/>
</g>
<circle class="st0" cx="408.1" cy="521.6" r="37.9"/>
<circle class="st0" cx="599.1" cy="709.8" r="37.9"/>
</svg>
