<?xml version="1.0" encoding="utf-8"?>
<!-- Generator: Adobe Illustrator 25.2.0, SVG Export Plug-In . SVG Version: 6.00 Build 0)  -->
<svg version="1.1" id="Layer_1" xmlns="http://www.w3.org/2000/svg" xmlns:xlink="http://www.w3.org/1999/xlink" x="0px" y="0px"
	 viewBox="0 0 1080 1080" style="enable-background:new 0 0 1080 1080;" xml:space="preserve">
<style type="text/css">
	.st0{fill:#3888FF;}
</style>
<path d="M445,232c-32.9,4.6-64,17.7-88.5,37.3c-5.8,4.7-88.5,86.8-88.5,87.9c0,0.5,0.6,0.8,1.3,0.8c0.8,0,4.2,1.4,7.7,3.2
	c4.5,2.2,9.7,6.4,17.7,14.1l11.4,11l39.7-39.4c41.7-41.5,46.6-45.6,63.8-54.3c18.7-9.4,34.6-13,56.4-13c16.1-0.1,23.9,1.1,38,5.4
	c43,13.2,76.6,51.6,84.5,96.4c1.9,11.4,1.9,32.8,0,44.2c-4.2,24-15.3,45.5-33.2,64.6c-10.7,11.4-12.7,15.6-12.1,25.2
	c0.3,5.3,1,7.4,3.4,10.8c4.8,6.9,10.3,10.1,18,10.6c9.5,0.6,13.8-1.4,24.5-11.4C614,502.1,644,490,676.8,490c24.1,0,46,6.3,67,19.1
	c11.9,7.4,30.7,26.2,38.1,38.1c12.3,20.1,18,38.9,18.8,62.3c0.8,23.3-2.9,41-12.8,60.7c-8.2,16.4-12.7,21.6-54.3,63.5l-39.9,40.2
	l11,11.4c7.7,8,11.9,13.2,14.1,17.7c1.8,3.5,3.2,6.9,3.2,7.7c0,0.7,0.3,1.3,0.8,1.3c1.1,0,83.2-82.7,87.9-88.5
	c16.9-21.1,29.1-47.3,35-75.4c2.4-11.3,2.7-14.8,2.7-33.6c0.1-23-1.1-32.4-6.5-50.7c-17-57.4-64.3-102.6-122.4-117.1
	c-17.6-4.4-24.2-5.2-43.5-5.1c-17.4,0-22.5,0.6-38.9,4l-3.4,0.7l0.7-3.4c3.4-16.4,4-21.5,4-38.9c0.1-23.9-3.1-41.9-11-62.3
	c-21.7-56.3-68.4-95.6-128.1-107.8C488.1,231.6,456,230.5,445,232z"/>
<path d="M247,381c-9.5,3.2-16,12.4-16,22.5c0,9,1.3,11,20.9,30.7l18.4,18.8l-5.1,9.7c-12.3,23.6-16.6,48.1-12.8,73.3
	c7.5,49.7,45.4,89.4,94.8,99.4c25.9,5.2,51.1,1.6,76-10.7l12.7-6.3l13,13l13,13.1l-3.1,5c-11.8,18.8-18.3,48-15.9,71.3
	c2.9,27.7,13.9,51.6,32.8,71.3c37.4,38.8,93.5,47.8,141.6,22.7l9.7-5.1l18.8,18.4c19.7,19.6,21.7,20.9,30.7,20.9
	c10.3,0,20-7.2,22.9-16.9c2-6.7,2-7.4,0-14.2c-1.5-5-3.1-6.9-20-24l-18.5-18.5l4.1-7c13.6-23.3,18.8-56.4,13-82.9
	c-9-41.3-39.2-75.2-78.8-88.5c-30.8-10.3-65.1-7.3-94.1,8.1l-9.4,5.1l-12.9-12.9L470,584.5l6-12c11.9-23.8,15.6-47.8,11.5-73.5
	c-7.8-47.7-44.9-86.5-93-97c-26.5-5.8-59.6-0.6-82.9,13l-7,4.1l-18.5-18.5c-17.1-16.9-19-18.5-24-20
	C255.2,378.6,253.8,378.6,247,381z M400.1,582.8l-5.4,2c-17.4,6.5-38.3,5.5-55.1-2.7c-14.8-7.3-24.6-16.9-32.5-32.1
	c-5.4-10.4-7.2-18.2-7.3-31.1c0-34,22.3-61.8,55.7-69.5c8.7-2,26.1-1.2,35,1.6c3.9,1.2,9,3.3,11.5,4.5
	c26.1,13.2,42.1,43.3,38.1,71.7c-1.1,7.9-4.9,20.8-6.1,20.8 M532,646c0-1,12.7-5,19.2-6c7-1.1,20.7-0.4,28.2,1.6
	c18.5,4.8,36.4,19.2,45.1,36.4c5.2,10.3,7,18.6,7,32.5c-0.1,11.5-0.4,13.9-2.9,21c-10.4,30.2-36.1,48.7-67.5,48.7
	c-13.1-0.1-18.1-1.2-29.6-6.8c-16-7.7-26-17.5-33.6-33c-8.2-16.8-9.2-37.7-2.7-55.1l2-5.4"/>
<circle class="st0" cx="408.2" cy="515.8" r="37.9"/>
<circle class="st0" cx="596.1" cy="709.8" r="37.9"/>
</svg>
